<svg width="22" height="18" viewBox="0 0 22 18" fill="none" xmlns="http://www.w3.org/2000/svg">
<path d="M21.2285 13.0517V16.293C21.2286 16.5251 21.1189 16.7486 20.9216 16.9183C20.7243 17.0881 20.4539 17.1916 20.1652 17.2078C19.6655 17.2353 19.2573 17.25 18.9418 17.25C8.83782 17.25 0.647888 10.6839 0.647888 2.58333C0.647888 2.33033 0.665039 2.00308 0.700483 1.6025C0.720746 1.37099 0.849785 1.15426 1.06156 0.996041C1.27334 0.837823 1.55209 0.749895 1.84156 0.75H5.88451C6.02633 0.749885 6.16314 0.792037 6.26837 0.868269C6.3736 0.9445 6.43972 1.04937 6.45391 1.1625C6.4802 1.37333 6.50421 1.54108 6.52708 1.6685C6.75431 2.93985 7.21996 4.17635 7.90827 5.33608C8.01689 5.51942 7.946 5.7385 7.74019 5.85583L5.27281 7.26933C6.78143 10.0876 9.58278 12.3335 13.098 13.543L14.8588 11.5685C14.9308 11.4878 15.0358 11.43 15.1555 11.405C15.2752 11.3801 15.4021 11.3896 15.5139 11.4319C16.9603 11.9827 18.5022 12.3551 20.0874 12.5365C20.2463 12.5548 20.4556 12.575 20.7163 12.5952C20.8572 12.6067 20.9877 12.6599 21.0825 12.7442C21.1774 12.8285 21.2298 12.9381 21.2296 13.0517H21.2285Z" fill="#00C938"/>
</svg>
